<svg width="222" height="45" viewBox="0 0 222 45" fill="none" xmlns="http://www.w3.org/2000/svg">
<g clip-path="url(#clip0_350_6)">
<path d="M185.861 0.0186058V7.14072H170.553V44.6106H162.899V7.14115H147.273V0.0186058H185.861ZM187.582 40.3628C188.121 40.3628 188.592 40.5567 188.992 40.9452C189.397 41.3334 189.598 41.7985 189.604 42.3402C189.602 42.6956 189.504 43.0438 189.318 43.3471C189.136 43.6459 188.881 43.8938 188.577 44.0676C188.276 44.2477 187.932 44.3414 187.582 44.3384C187.021 44.3384 186.544 44.1441 186.145 43.756C185.746 43.3675 185.548 42.8971 185.553 42.3402C185.548 41.7985 185.745 41.3335 186.145 40.9452C186.544 40.5567 187.021 40.3628 187.582 40.3628ZM35.8778 44.6106L7.65506 9.53135V44.5924H0.000732422V0H9.56799L45.2244 44.277L45.2249 7.14115L45.2218 0.0186058H83.8093V7.14072H52.8788V18.5984H77.7534V25.721H52.8788V37.4885H83.8098V44.6106H35.8778ZM108.34 25.653L113.357 31.8894L103.078 44.6634H93.033L108.34 25.653ZM103.078 0.0372115L116.028 16.1204L128.938 0.0865385L138.955 0.0713942L121.043 22.3486L138.984 44.6292H128.938L93.0616 0.0372115H103.078ZM200.645 25.5531H204.036V38.6204C204.032 39.8211 203.772 40.8479 203.264 41.712C202.75 42.5752 202.039 43.2346 201.127 43.6998C200.22 44.1593 199.156 44.3947 197.948 44.3947C196.843 44.3947 195.853 44.1956 194.971 43.8071C194.09 43.4185 193.39 42.8361 192.876 42.0694C192.357 41.3031 192.103 40.3473 192.103 39.2028H195.501C195.506 39.7034 195.62 40.1374 195.837 40.5009C196.051 40.8597 196.365 41.1489 196.74 41.3334C197.129 41.5281 197.575 41.6253 198.077 41.625C198.623 41.625 199.089 41.5125 199.468 41.2823C199.846 41.0573 200.137 40.7201 200.339 40.2707C200.536 39.8259 200.64 39.2742 200.645 38.62V25.5531ZM217.992 30.6632C217.909 29.8713 217.546 29.2526 216.913 28.8134C216.275 28.3686 215.451 28.1492 214.439 28.1492C213.73 28.1492 213.117 28.2565 212.609 28.466C212.101 28.6806 211.707 28.9666 211.437 29.3296C211.168 29.6922 211.033 30.1063 211.022 30.5714C211.022 30.9596 211.115 31.2971 211.297 31.5779C211.484 31.8725 211.738 32.1193 212.038 32.2988C212.364 32.5034 212.712 32.6697 213.076 32.7942C213.459 32.9269 213.843 33.0394 214.227 33.1317L215.995 33.5661C216.706 33.7297 217.396 33.949 218.054 34.2303C218.712 34.5063 219.309 34.859 219.833 35.283C220.357 35.7071 220.772 36.2181 221.078 36.8161C221.383 37.414 221.539 38.1141 221.539 38.9215C221.539 40.0098 221.259 40.9656 220.694 41.7933C220.129 42.6163 219.314 43.2601 218.246 43.7253C217.183 44.1852 215.896 44.4202 214.382 44.4202C212.92 44.4202 211.644 44.1952 210.57 43.7456C209.492 43.3013 208.652 42.6466 208.045 41.7881C207.438 40.9297 207.112 39.8821 207.065 38.6507H210.426C210.472 39.2945 210.68 39.8311 211.033 40.2655C211.39 40.6947 211.857 41.0114 212.428 41.2261C213.003 41.4359 213.646 41.5432 214.357 41.5432C215.098 41.5432 215.752 41.4307 216.317 41.2109C216.877 40.9911 217.317 40.6848 217.634 40.2858C217.956 39.8921 218.117 39.4274 218.122 38.896C218.117 38.4105 217.971 38.0068 217.691 37.6897C217.406 37.3729 217.011 37.1073 216.508 36.8926C216.001 36.678 215.409 36.4838 214.735 36.3154L212.588 35.7737C211.037 35.38 209.808 34.7824 208.911 33.9798C208.009 33.1776 207.563 32.1149 207.563 30.7809C207.563 29.6875 207.864 28.7264 208.471 27.9035C209.072 27.0813 209.897 26.4423 210.939 25.9875C211.986 25.5276 213.169 25.3026 214.486 25.3026C215.824 25.3026 216.996 25.5276 218.008 25.9875C219.018 26.4423 219.812 27.0757 220.387 27.8831C220.963 28.691 221.264 29.6156 221.28 30.6632H217.992Z" fill="black"/>
</g>
<defs>
<clipPath id="clip0_350_6">
<rect width="221.54" height="45" fill="white"/>
</clipPath>
</defs>
</svg>
